<svg width="61" height="60" viewBox="0 0 61 60" fill="none" xmlns="http://www.w3.org/2000/svg">
<path d="M16.5208 25.0002C15.954 25.0002 15.4101 25.0852 14.8688 25.1627C15.0441 24.5827 15.2246 23.9927 15.5143 23.4627C15.8041 22.6927 16.2565 22.0252 16.7064 21.3527C17.0825 20.6252 17.7459 20.1327 18.2339 19.5102C18.7448 18.9052 19.4412 18.5027 19.9928 18.0002C20.5341 17.4752 21.2433 17.2127 21.8075 16.8427C22.3972 16.5102 22.9106 16.1427 23.4596 15.9677L24.8295 15.4127L26.0343 14.9202L24.8016 10.0752L23.2842 10.4352C22.7988 10.5552 22.2065 10.6952 21.533 10.8627C20.8442 10.9877 20.1097 11.3302 19.2913 11.6427C18.483 11.9977 17.5477 12.2377 16.6784 12.8077C15.8041 13.3527 14.795 13.8077 13.9055 14.5377C13.0438 15.2902 12.0043 15.9427 11.2367 16.9002C10.398 17.7952 9.56938 18.7352 8.92634 19.8052C8.18163 20.8252 7.67584 21.9452 7.14209 23.0527C6.65917 24.1602 6.27029 25.2927 5.95259 26.3927C5.35021 28.5977 5.08079 30.6927 4.97659 32.4852C4.89017 34.2802 4.941 35.7727 5.04775 36.8527C5.08588 37.3627 5.15704 37.8577 5.20788 38.2002L5.27142 38.6202L5.3375 38.6052C5.78957 40.6823 6.83023 42.591 8.33912 44.1106C9.848 45.6303 11.7634 46.6987 13.8639 47.1923C15.9643 47.6858 18.1639 47.5844 20.2082 46.8998C22.2525 46.2151 24.0579 44.9752 25.4157 43.3234C26.7734 41.6716 27.628 39.6755 27.8806 37.5659C28.1332 35.4564 27.7734 33.3196 26.8429 31.4027C25.9124 29.4859 24.4492 27.8674 22.6225 26.7343C20.7958 25.6013 18.6804 25.0001 16.5208 25.0002ZM44.4792 25.0002C43.9124 25.0002 43.3685 25.0852 42.8271 25.1627C43.0025 24.5827 43.1829 23.9927 43.4727 23.4627C43.7624 22.6927 44.2148 22.0252 44.6647 21.3527C45.0409 20.6252 45.7043 20.1327 46.1922 19.5102C46.7031 18.9052 47.3995 18.5027 47.9511 18.0002C48.4925 17.4752 49.2016 17.2127 49.7658 16.8427C50.3555 16.5102 50.8689 16.1427 51.4179 15.9677L52.7879 15.4127L53.9926 14.9202L52.7599 10.0752L51.2425 10.4352C50.7571 10.5552 50.1649 10.6952 49.4913 10.8627C48.8025 10.9877 48.068 11.3302 47.2496 11.6427C46.4439 12.0002 45.506 12.2377 44.6367 12.8102C43.7624 13.3552 42.7534 13.8102 41.8638 14.5402C41.0022 15.2927 39.9626 15.9452 39.195 16.9002C38.3563 17.7952 37.5277 18.7352 36.8847 19.8052C36.14 20.8252 35.6342 21.9452 35.1004 23.0527C34.6175 24.1602 34.2286 25.2927 33.9109 26.3927C33.3085 28.5977 33.0391 30.6927 32.9349 32.4852C32.8485 34.2802 32.8993 35.7727 33.0061 36.8527C33.0442 37.3627 33.1154 37.8577 33.1662 38.2002L33.2298 38.6202L33.2958 38.6052C33.7479 40.6823 34.7886 42.591 36.2975 44.1106C37.8063 45.6303 39.7218 46.6987 41.8222 47.1923C43.9226 47.6858 46.1222 47.5844 48.1665 46.8998C50.2108 46.2151 52.0162 44.9752 53.374 43.3234C54.7318 41.6716 55.5864 39.6755 55.8389 37.5659C56.0915 35.4564 55.7317 33.3196 54.8012 31.4027C53.8707 29.4859 52.4075 27.8674 50.5808 26.7343C48.7542 25.6013 46.6387 25.0001 44.4792 25.0002Z" fill="white"/>
</svg>
