<svg width="24" height="12" viewBox="0 0 24 12" fill="none" xmlns="http://www.w3.org/2000/svg">
<g clip-path="url(#clip0_158_498)">
<path fill-rule="evenodd" clip-rule="evenodd" d="M23.725 5.149V5.148L18.825 0.273002C18.459 -0.091998 17.865 -0.090998 17.5 0.276002C17.134 0.643002 17.136 1.236 17.503 1.602L20.792 4.875H0.937C0.42 4.875 0 5.295 0 5.813C0 6.33 0.42 6.75 0.938 6.75H20.792L17.502 10.023C17.136 10.388 17.135 10.982 17.5 11.349C17.865 11.716 18.459 11.717 18.826 11.352L23.724 6.477H23.725C24.092 6.11 24.091 5.514 23.725 5.149Z" fill="white"/>
</g>
<defs>
<clipPath id="clip0_158_498">
<rect width="24" height="12" fill="white"/>
</clipPath>
</defs>
</svg>
