<svg width="18" height="10" viewBox="0 0 18 10" fill="none" xmlns="http://www.w3.org/2000/svg">
<path d="M16.497 9.01122L8.99999 1.70322L1.50299 9.01122C1.36905 9.14205 1.18923 9.2153 1.00199 9.2153C0.814751 9.2153 0.634939 9.14205 0.500992 9.01122C0.436135 8.94767 0.384611 8.87182 0.349436 8.78811C0.314261 8.7044 0.296143 8.61452 0.296143 8.52372C0.296143 8.43292 0.314261 8.34303 0.349436 8.25932C0.384611 8.17561 0.436135 8.09976 0.500992 8.03622L8.47649 0.260218C8.61655 0.123697 8.8044 0.0472906 8.99999 0.0472906C9.19558 0.0472906 9.38343 0.123697 9.52349 0.260218L17.499 8.03472C17.5643 8.09831 17.6162 8.17435 17.6517 8.25833C17.6871 8.34232 17.7054 8.43256 17.7054 8.52372C17.7054 8.61488 17.6871 8.70512 17.6517 8.7891C17.6162 8.87309 17.5643 8.94912 17.499 9.01272C17.365 9.14355 17.1852 9.2168 16.998 9.2168C16.8108 9.2168 16.6309 9.14355 16.497 9.01272V9.01122Z" fill="white"/>
</svg>
