<svg width="8" height="6" viewBox="0 0 8 6" fill="none" xmlns="http://www.w3.org/2000/svg">
<g clip-path="url(#clip0_154_260)">
<path d="M7.872 0.905986L7.61 0.641986C7.528 0.559986 7.418 0.514986 7.3 0.514986C7.183 0.514986 7.073 0.559986 6.991 0.641986L4.001 3.63199L1.01 0.638986C0.927004 0.556986 0.817003 0.510986 0.699004 0.510986C0.583004 0.510986 0.474004 0.556986 0.390004 0.639986L0.128004 0.900986C-0.0419965 1.07099 -0.0419965 1.34999 0.128004 1.52099L3.691 5.09599C3.774 5.17899 3.883 5.23599 4.001 5.23599H4.003C4.12 5.23599 4.23 5.17799 4.313 5.09599L7.873 1.52999C7.954 1.44799 8 1.33499 8 1.21699C8 1.09999 7.955 0.989986 7.872 0.906986V0.905986Z" fill="white"/>
</g>
<defs>
<clipPath id="clip0_154_260">
<rect width="8" height="5" fill="white" transform="translate(0 0.5)"/>
</clipPath>
</defs>
</svg>
